HIERARCHY
ROOT Hips
{
	OFFSET -3.958830 18.904000 13.208200
	CHANNELS 6 Xposition Yposition Zposition Zrotation Yrotation Xrotation 
	JOINT LHipJoint
	{
		OFFSET 0.000000 0.000000 0.000000
		CHANNELS 3 Zrotation Yrotation Xrotation
		JOINT LeftUpLeg
		{
			OFFSET 1.800000 -1.400000 0.085000
			CHANNELS 3 Zrotation Yrotation Xrotation
			JOINT LeftLeg
			{
				OFFSET 2.215000 -6.000000 0.000000
				CHANNELS 3 Zrotation Yrotation Xrotation
				JOINT LeftFoot
				{
					OFFSET 2.500000 -6.900000 0.000000
					CHANNELS 3 Zrotation Yrotation Xrotation
					JOINT LeftToeBase
					{
						OFFSET 0.200000 -0.500000 1.950000
						CHANNELS 3 Zrotation Yrotation Xrotation
						End Site
						{
							OFFSET 0.000000 0.000000 0.000000
						}
					}
				}
			}
		}
	}
	JOINT RHipJoint
	{
		OFFSET 0.000000 0.000000 0.000000
		CHANNELS 3 Zrotation Yrotation Xrotation
		JOINT RightUpLeg
		{
			OFFSET -1.800000 -1.400000 0.085000
			CHANNELS 3 Zrotation Yrotation Xrotation
			JOINT RightLeg
			{
				OFFSET -2.215000 -6.000000 0.000000
				CHANNELS 3 Zrotation Yrotation Xrotation
				JOINT RightFoot
				{
					OFFSET -2.500000 -6.900000 0.000000
					CHANNELS 3 Zrotation Yrotation Xrotation
					JOINT RightToeBase
					{
						OFFSET -0.200000 -0.500000 1.950000
						CHANNELS 3 Zrotation Yrotation Xrotation
						End Site
						{
							OFFSET 0.000000 0.000000 0.000000
						}
					}
				}
			}
		}
	}
	JOINT LowerBack
	{
		OFFSET 0.000000 0.000000 0.000000
		CHANNELS 3 Zrotation Yrotation Xrotation
		JOINT Spine
		{
			OFFSET -0.087000 1.940000 -0.288900
			CHANNELS 3 Zrotation Yrotation Xrotation
			JOINT Spine1
			{
				OFFSET 0.000000 1.950000 0.060000
				CHANNELS 3 Zrotation Yrotation Xrotation
				JOINT Neck
				{
					OFFSET 0.000000 0.000000 0.000000
					CHANNELS 3 Zrotation Yrotation Xrotation
					JOINT Neck1
					{
						OFFSET 0.000000 1.600000 0.340000
						CHANNELS 3 Zrotation Yrotation Xrotation
						JOINT Head
						{
							OFFSET 0.000000 1.667000 -0.240000
							CHANNELS 3 Zrotation Yrotation Xrotation
							End Site
							{
								OFFSET 0.000000 0.000000 0.000000
							}
						}
					}
				}
				JOINT LeftShoulder
				{
					OFFSET 0.000000 0.000000 0.000000
					CHANNELS 3 Zrotation Yrotation Xrotation
					JOINT LeftArm
					{
						OFFSET 2.700000 1.550000 -0.730000
						CHANNELS 3 Zrotation Yrotation Xrotation
						JOINT LeftForeArm
						{
							OFFSET 5.450000 0.000000 0.000000
							CHANNELS 3 Zrotation Yrotation Xrotation
							JOINT LeftHand
							{
								OFFSET 3.450000 0.000000 0.000000
								CHANNELS 3 Zrotation Yrotation Xrotation
								JOINT LeftHandIndex1
								{
									OFFSET 0.750000 0.000000 0.000000
									CHANNELS 3 Zrotation Yrotation Xrotation
									End Site
									{
										OFFSET 0.000000 0.000000 0.000000
									}
								}
							}
						}
					}
				}
				JOINT RightShoulder
				{
					OFFSET 0.000000 0.000000 0.000000
					CHANNELS 3 Zrotation Yrotation Xrotation
					JOINT RightArm
					{
						OFFSET -2.700000 1.550000 -0.730000
						CHANNELS 3 Zrotation Yrotation Xrotation
						JOINT RightForeArm
						{
							OFFSET -5.450000 0.000000 0.000000
							CHANNELS 3 Zrotation Yrotation Xrotation
							JOINT RightHand
							{
								OFFSET -3.450000 0.000000 0.000000
								CHANNELS 3 Zrotation Yrotation Xrotation
								JOINT RightHandIndex1
								{
									OFFSET -0.750000 0.000000 0.000000
									CHANNELS 3 Zrotation Yrotation Xrotation
									End Site
									{
										OFFSET 0.000000 0.000000 0.000000
									}
								}
							}
						}
					}
				}
			}
		}
	}
}
MOTION
Frames: 6
Frame Time: 0.016667
-0.110170 16.700800 -4.275190 -3.677181 7.271451 3.598652 -15.358566 12.570874 3.931519 22.819345 -1.842321 -24.320586 -14.906095 11.715861 23.324082 0.181882 6.749677 2.009364 0.156740 0.062940 0.090320 18.044626 -10.656231 2.358912 -20.650047 1.322524 -21.244762 8.642046 -6.410474 17.977923 -0.033046 -3.739837 2.941901 0.076950 0.105670 0.092830 -3.098537 -1.262572 -8.056612 2.329072 0.751223 10.777759 2.089097 0.730942 3.935271 0.613481 1.655740 -11.131213 1.162188 -3.582163 33.095136 0.757490 -2.946570 -5.077420 -22.811467 -17.424238 6.663471 -37.947708 -5.080353 -1.088984 -32.401408 -11.751790 1.369087 -3.733282 3.182325 0.144900 0.070920 -0.018050 0.090290 22.067849 18.118343 6.772836 44.224418 9.071339 -3.387247 24.032713 24.318409 2.861822 2.413859 -1.456438 -0.065460 0.087780 -0.022570 -0.052090 
-0.139380 16.639090 -4.292510 -3.612408 7.628473 3.865324 -15.387718 12.518455 4.051869 23.371268 -1.878518 -24.856158 -15.549638 11.983088 23.382561 0.200491 6.883884 1.955759 0.161130 0.059020 0.105940 18.030605 -10.565639 2.368496 -20.902837 1.417160 -21.797132 8.843924 -6.511605 18.345628 -0.040028 -3.748766 2.929725 0.070980 0.089430 0.091100 -3.040873 -1.360982 -8.157291 2.033548 0.665404 11.335394 2.290206 0.644305 3.697624 0.606429 1.390941 -11.568721 0.708938 -3.403514 32.969928 0.683720 -2.762190 -5.534680 -22.409843 -18.062603 6.962344 -37.024723 -4.699087 -1.270375 -34.694765 -12.398713 1.617041 -3.708586 3.199018 0.163510 0.055840 -0.006910 0.084990 21.681037 18.999099 7.110700 42.852826 9.130778 -3.348971 26.212110 24.826729 3.335184 2.416188 -1.465470 -0.067050 0.084780 -0.026850 -0.061500 
-0.191570 16.533770 -4.319540 -3.531484 8.213451 4.142657 -15.445954 12.383335 4.307691 24.633809 -1.914257 -26.173571 -16.776062 12.764417 24.264705 0.255368 7.252894 1.799499 0.189320 0.087100 0.130190 18.015802 -10.367080 2.387340 -21.693814 1.605108 -22.830792 9.717571 -7.060807 19.880275 -0.082759 -3.920129 2.842706 0.074630 0.043920 0.095910 -2.942406 -1.545534 -8.361070 1.684698 0.668898 12.823335 2.588442 0.716282 2.829867 0.593994 0.987548 -12.022704 0.025435 -3.320512 32.346477 1.067280 -2.750400 -7.380470 -22.317043 -18.488771 7.062158 -34.769737 -4.151344 -1.488536 -38.364854 -13.299043 2.072513 -3.654290 3.243535 0.199480 0.016210 0.029210 0.080040 21.613212 19.795974 7.576172 40.311322 8.343792 -3.854462 30.397450 27.059076 4.519962 2.405267 -1.501762 -0.051210 0.070890 -0.039970 -0.071130 
-0.247230 16.434920 -4.353150 -3.759274 8.832604 4.054443 -15.505255 12.225948 4.595785 26.243043 -1.844752 -28.105238 -17.345016 13.825234 26.457214 0.303937 7.755847 1.592153 0.220980 0.113750 0.178280 18.012968 -10.119648 2.456478 -22.672729 1.970335 -24.015829 11.313694 -8.113466 22.470338 -0.168552 -4.283080 2.683199 0.075720 -0.020930 0.092440 -2.863823 -1.744724 -8.642209 1.840595 0.569565 15.245366 2.477585 0.870590 1.371226 0.846544 0.730168 -12.535519 -0.436949 -3.193100 32.316325 1.356130 -2.436850 -10.282580 -22.768485 -19.000253 7.229870 -32.556359 -3.185119 -1.783016 -41.009173 -13.506716 2.191328 -3.585509 3.243897 0.271150 -0.043290 0.086390 0.063380 21.512543 20.733921 7.860234 37.412563 8.271770 -3.921760 34.800175 28.135931 5.726592 2.406261 -1.498953 -0.046760 0.072930 -0.052470 -0.097900 
-0.311520 16.348750 -4.370700 -3.830860 9.608240 3.757359 -15.565075 11.954181 4.915578 28.040925 -1.762162 -30.247074 -18.220504 15.277656 29.179877 0.385343 8.429996 1.344091 0.226720 0.102810 0.224690 18.035367 -9.809840 2.571165 -24.062207 2.363677 -25.266951 13.526298 -9.660711 25.548856 -0.282524 -4.872304 2.450163 0.058940 -0.073170 0.088270 -2.814669 -1.852820 -8.954133 1.876886 0.366024 17.622719 1.786048 0.964884 -0.065395 1.246490 0.954893 -13.222709 -0.092567 -3.221181 32.883718 1.145090 -1.935700 -12.370080 -23.238833 -19.930540 7.697578 -30.665377 -1.839470 -2.163170 -41.931885 -13.533676 2.086467 -3.533217 3.209938 0.341090 -0.088430 0.132650 0.036960 21.046294 21.838427 8.046581 35.510081 8.873026 -3.699226 38.199406 28.122026 6.513613 2.417762 -1.468459 -0.056080 0.078540 -0.052640 -0.132470 
-0.377320 16.281750 -4.366590 -3.932067 10.115510 3.035144 -15.606244 11.705966 5.167035 29.861777 -1.482631 -31.653900 -18.889516 16.708161 31.655232 0.484039 9.057491 1.125405 0.220790 0.083320 0.253890 18.070669 -9.520438 2.705949 -25.318669 2.788888 -26.354677 15.609563 -11.446799 28.998423 -0.418987 -5.578780 2.191811 0.036470 -0.112160 0.078550 -2.805084 -1.929316 -9.244255 2.231972 0.195896 19.868832 0.841057 1.205941 -1.557474 1.586963 1.135253 -13.743866 0.035712 -3.262041 34.165077 1.109720 -1.716530 -13.467130 -24.205744 -20.408913 7.930335 -29.065371 -0.594832 -2.393480 -41.608322 -13.237977 1.876096 -3.485811 3.171412 0.393350 -0.125410 0.165490 0.013980 21.214204 22.459876 8.251637 34.249645 8.656087 -3.841599 40.790531 28.595573 7.249171 2.427419 -1.445517 -0.064160 0.083310 -0.049950 -0.156630 
